<svg xmlns="http://www.w3.org/2000/svg" viewBox="438 6 46.224 36.004">
  <defs>
    <style>
      .cls-1 {
        fill: #a00c31;
      }
    </style>
  </defs>
  <g id="BA_Productions_Logo" data-name="BA Productions Logo" transform="translate(438 6)">
    <path id="Path_8" data-name="Path 8" class="cls-1" d="M14.724,4.967H.17V0H23.02Z" transform="translate(-0.145)"/>
    <path id="Path_9" data-name="Path 9" class="cls-1" d="M33.882,53.793,0,53.967V49H41.925Z" transform="translate(0 -41.698)"/>
    <path id="Path_10" data-name="Path 10" class="cls-1" d="M4.967,102.223V94H0v18.877Z" transform="translate(0 -79.992)"/>
    <path id="Path_11" data-name="Path 11" class="cls-1" d="M33.882,56.243,0,77.034l4.983-10.7L31.505,51.88Z" transform="translate(0 -44.149)"/>
    <path id="Path_12" data-name="Path 12" class="cls-1" d="M46.369,46.51.17,75.307l11.363-.413L44.355,53.128Z" transform="translate(-0.145 -39.579)"/>
    <path id="Path_13" data-name="Path 13" class="cls-1" d="M281.817,76.584H276.85V53.324l4.967-5.314Z" transform="translate(-235.593 -40.855)"/>
    <path id="Path_14" data-name="Path 14" class="cls-1" d="M182.248,207.4l14.555-.107.036,4.967-19.848.146Z" transform="translate(-150.614 -176.399)"/>
  </g>
</svg>
