<svg xmlns="http://www.w3.org/2000/svg" viewBox="1006.109 819.179 24.694 24.694"><defs><style>.a{fill:#fff;}</style></defs><g transform="translate(1006.109 819.179)"><path class="a" d="M21.773,16.7a6.373,6.373,0,1,0,6.373,6.373A6.385,6.385,0,0,0,21.773,16.7Zm0,10.455a4.082,4.082,0,1,1,4.082-4.082A4.1,4.1,0,0,1,21.773,27.155Z" transform="translate(-9.426 -10.775)"/><ellipse class="a" cx="1.444" cy="1.444" rx="1.444" ry="1.444" transform="translate(17.525 4.331)"/><path class="a" d="M26.1,6.841A7.09,7.09,0,0,0,20.875,4.8H10.619A6.82,6.82,0,0,0,3.4,12.019V22.225a7.164,7.164,0,0,0,2.091,5.327,7.266,7.266,0,0,0,5.178,1.942H20.825a7.351,7.351,0,0,0,5.228-1.942,7.128,7.128,0,0,0,2.041-5.277V12.019A7.137,7.137,0,0,0,26.1,6.841Zm-.2,15.434a4.865,4.865,0,0,1-1.444,3.634A5.146,5.146,0,0,1,20.825,27.2H10.669a5.146,5.146,0,0,1-3.634-1.294A5,5,0,0,1,5.69,22.225V12.019A4.963,4.963,0,0,1,7.034,8.385,5.063,5.063,0,0,1,10.669,7.09H20.925a4.963,4.963,0,0,1,3.634,1.344A5.137,5.137,0,0,1,25.9,12.019V22.275Z" transform="translate(-3.4 -4.8)"/></g></svg>