<svg xmlns="http://www.w3.org/2000/svg" viewBox="818 819.179 20.186 20.096"><defs><style>.a{fill:#fff;fill-rule:evenodd;}</style></defs><g transform="translate(818 819.179)"><g transform="translate(0 0)"><path class="a" d="M4.287,19.25V5.96H.18V19.25Zm0-18a2.02,2.02,0,0,0-2.1-2.095A2.026,2.026,0,0,0,.053,1.249a2.015,2.015,0,0,0,2.08,2.1h.024A2.027,2.027,0,0,0,4.287,1.249Zm6.7,18V11.678a3.082,3.082,0,0,1,.148-1.1A2.467,2.467,0,0,1,13.45,8.93,2.45,2.45,0,0,1,16.1,11.678V19.25h4.135V11.475c0-4.165-2.223-6.1-5.189-6.1a4.489,4.489,0,0,0-4.091,2.285l.03-1.778H6.86c.059,1.272,0,13.371,0,13.371Z" transform="translate(-0.053 0.846)"/></g></g></svg>