<svg xmlns="http://www.w3.org/2000/svg" viewBox="1110.516 819.453 20.113 25.141"><defs><style>.a{fill:#fff;fill-rule:evenodd;}</style></defs><g transform="translate(1110.516 819.453)"><g transform="translate(0 0)"><path class="a" d="M12.214,19.861c4.8,0,8.052-4.465,8.052-10.441,0-4.518-3.75-8.727-9.447-8.727C3.729.692.154,5.882.154,10.209c0,2.62.971,4.951,3.056,5.82a.513.513,0,0,0,.747-.381c.068-.267.233-.942.3-1.223a.749.749,0,0,0-.214-.849,4.454,4.454,0,0,1-.984-2.988,7.14,7.14,0,0,1,7.347-7.3c4.006,0,6.209,2.5,6.209,5.838,0,4.392-1.9,8.1-4.731,8.1A2.345,2.345,0,0,1,9.532,14.3c.448-1.93,1.318-4.013,1.318-5.407A2.025,2.025,0,0,0,8.837,6.6c-1.6,0-2.878,1.686-2.878,3.944a5.954,5.954,0,0,0,.477,2.411s-1.633,7.065-1.92,8.3a13.512,13.512,0,0,0-.262,3.41c.109.939,1.018,1.7,1.807.673a12.74,12.74,0,0,0,1.459-3.192c.184-.678,1.05-4.187,1.05-4.187A4.256,4.256,0,0,0,12.214,19.861Z" transform="translate(-0.154 -0.692)"/></g></g></svg>