<svg xmlns="http://www.w3.org/2000/svg" viewBox="2231 439 29 27">
  <defs>
    <style>
      .cls-1 {
        fill-rule: evenodd;
      }
    </style>
  </defs>
  <g id="printer" transform="translate(2229 436)">
    <g id="icon-124-printer-text">
      <path id="printer-text" class="cls-1" d="M7,11V5A2,2,0,0,1,9,3H24a2,2,0,0,1,2,2v6ZM6,27H4.994A3,3,0,0,1,2,24V15a3,3,0,0,1,2.994-3H28.006A3,3,0,0,1,31,15v9a3,3,0,0,1-2.994,3H27V19H6v8Zm1-7v8a2,2,0,0,0,2,2H24a1.994,1.994,0,0,0,2-2V20Zm18-3a1,1,0,1,0-1-1,1,1,0,0,0,1,1ZM9,23v1H24V23Zm0,3v1H24V26Z"/>
    </g>
  </g>
</svg>
