<svg xmlns="http://www.w3.org/2000/svg" viewBox="902.25 819.179 23.465 20.113"><defs><style>.a{fill:#fff;fill-rule:evenodd;}</style></defs><g transform="translate(902.25 819.179)"><g transform="translate(0 0)"><path class="a" d="M20.606,1.812A4.787,4.787,0,0,0,17.092.154a4.864,4.864,0,0,0-4.814,5.018A5.421,5.421,0,0,0,12.4,6.335,13.57,13.57,0,0,1,2.48.852a5.325,5.325,0,0,0-.652,2.574,5.3,5.3,0,0,0,2.142,4.3,4.6,4.6,0,0,1-2.18-.666c0,.021,0,.043,0,.065A5.114,5.114,0,0,0,5.65,12.194a4.531,4.531,0,0,1-2.174.073,4.892,4.892,0,0,0,4.5,3.583,9.292,9.292,0,0,1-5.979,2.178,9.172,9.172,0,0,1-1.148-.074,12.99,12.99,0,0,0,7.38,2.314c8.855,0,13.7-7.7,13.7-14.387q0-.329-.014-.654a9.9,9.9,0,0,0,2.4-2.583,9.187,9.187,0,0,1-2.765.756A4.936,4.936,0,0,0,23.663.633,9.242,9.242,0,0,1,20.606,1.812Z" transform="translate(-0.846 -0.154)"/></g></g></svg>