<svg xmlns="http://www.w3.org/2000/svg" viewBox="951.638 819.905 27.852 19.59"><defs><style>.a{fill:#fff;fill-rule:evenodd;}</style></defs><g transform="translate(951.638 819.905)"><g transform="translate(0 0)"><path class="a" d="M28.4,5.169A6.028,6.028,0,0,0,27.292,2.4,3.983,3.983,0,0,0,24.5,1.225C20.6.943,14.758.943,14.758.943h-.012S8.9.943,5,1.225A3.984,3.984,0,0,0,2.211,2.4,6.024,6.024,0,0,0,1.1,5.169,42.124,42.124,0,0,0,.826,9.677V11.79A42.121,42.121,0,0,0,1.1,16.3a6.024,6.024,0,0,0,1.107,2.765,4.721,4.721,0,0,0,3.071,1.19c2.228.214,9.47.28,9.47.28s5.853-.009,9.75-.291a3.982,3.982,0,0,0,2.79-1.18A6.028,6.028,0,0,0,28.4,16.3a42.217,42.217,0,0,0,.278-4.507V9.677A42.219,42.219,0,0,0,28.4,5.169ZM11.877,14.35V6.525L19.4,10.451Z" transform="translate(-0.826 -0.943)"/></g></g></svg>